# xmcd
#
# Track frame offsets:
#	150
#	2704
#	19940
#	34058
#	54088
#	71710
#	90340
#	110238
#	130709
#
# Disc length: 2021 seconds
#
# Revision: 0
# Processed by: cddbd v1.5.2PL0 Copyright (c) Steve Scherf et al.
# Submitted via: EZCDAudioConverter 6.0.5.1
#
DISCID=6c07e309
DTITLE=Walter Christopher - It's All About Love Vol 2
DYEAR=2010
DGENRE=R&B
TTITLE0=Intro
TTITLE1=Falling In Love
TTITLE2=So Amazing
TTITLE3=Passion
TTITLE4=Beautiful
TTITLE5=There You Go Again
TTITLE6=Tonight
TTITLE7=Heaven
TTITLE8=Oh My
EXTD=
EXTT0=
EXTT1=
EXTT2=
EXTT3=
EXTT4=
EXTT5=
EXTT6=
EXTT7=
EXTT8=
PLAYORDER=
